<?xml version="1.0" standalone="no"?>
<!DOCTYPE svg PUBLIC "-//W3C//DTD SVG 20010904//EN"
 "http://www.w3.org/TR/2001/REC-SVG-20010904/DTD/svg10.dtd">
<svg version="1.0" xmlns="http://www.w3.org/2000/svg"
 width="1080.000000pt" height="1080.000000pt" viewBox="0 0 1080.000000 1080.000000"
 preserveAspectRatio="xMidYMid meet">

<g transform="translate(0.000000,1080.000000) scale(0.100000,-0.100000)"
fill="#000000" stroke="none">
<path d="M0 5400 l0 -5400 5400 0 5400 0 0 5400 0 5400 -5400 0 -5400 0 0
-5400z m5797 4496 c134 -16 146 -18 308 -48 397 -72 835 -251 1195 -491 218
-145 395 -322 532 -532 113 -173 234 -441 225 -500 -3 -16 4 -68 14 -115 23
-106 25 -190 5 -190 -22 0 -24 7 -40 131 -19 153 -61 265 -169 454 -158 278
-338 491 -570 678 -186 149 -527 324 -807 415 -402 131 -949 197 -1340 163
-560 -49 -965 -160 -1380 -378 -311 -163 -504 -318 -770 -616 -164 -186 -360
-589 -360 -744 0 -108 -25 -203 -50 -188 -4 2 -1 57 7 122 7 65 10 148 7 184
-6 62 -4 72 38 171 43 102 128 254 197 353 19 28 46 66 59 85 42 63 184 220
256 284 134 118 279 219 476 331 221 125 521 250 741 309 30 8 88 23 129 34
144 39 438 86 640 102 144 12 509 4 657 -14z m2126 -290 c52 -140 69 -377 47
-656 -18 -235 -14 -230 -85 -115 -33 53 -88 132 -123 176 l-63 79 12 58 c20
97 89 302 135 401 24 52 44 96 44 97 0 39 -141 -191 -221 -362 -27 -57 -52
-104 -55 -104 -3 0 -34 26 -69 58 -34 31 -106 89 -158 127 -53 39 -97 73 -97
78 0 4 60 36 133 71 188 92 357 147 437 143 44 -2 45 -3 63 -51z m-1846 28
c-3 -3 -12 -4 -19 -1 -8 3 -5 6 6 6 11 1 17 -2 13 -5z m50 -10 c-3 -3 -12 -4
-19 -1 -8 3 -5 6 6 6 11 1 17 -2 13 -5z m-3205 -30 c94 -22 246 -82 358 -141
58 -30 109 -58 114 -63 4 -5 -7 -16 -25 -26 -57 -29 -188 -130 -295 -226 -23
-21 -44 -38 -46 -38 -3 0 -15 27 -27 59 -25 69 -122 259 -176 346 -42 68 -42
65 18 -105 24 -69 59 -187 77 -262 l34 -137 -32 -38 c-49 -58 -149 -190 -155
-205 -31 -89 -57 547 -28 717 24 148 35 155 183 119z m3293 11 c54 -17 33 -18
-30 -1 -27 8 -41 14 -30 14 11 0 38 -5 60 -13z m-346 -231 c-24 -86 -73 -157
-190 -274 -139 -140 -186 -221 -180 -312 1 -10 5 -18 10 -18 5 0 43 42 85 93
104 127 148 162 200 159 119 -7 362 -65 512 -122 57 -22 112 -40 122 -40 9 0
31 19 47 41 46 63 232 238 310 293 39 27 98 65 133 84 l64 35 112 -77 c111
-75 332 -274 325 -292 -2 -5 -30 -48 -61 -95 -52 -78 -138 -232 -150 -269 -3
-11 -28 7 -87 63 -82 76 -123 99 -143 79 -15 -15 6 -47 81 -123 211 -214 321
-360 408 -547 90 -191 132 -338 182 -627 36 -207 48 -704 23 -905 -41 -317
-135 -597 -230 -685 -120 -112 -354 -276 -487 -342 -523 -262 -1424 -372
-2265 -277 -290 32 -615 96 -815 160 -207 66 -406 177 -518 290 -141 141 -249
395 -301 704 -34 208 -47 680 -26 935 47 543 210 934 509 1217 71 68 94 109
72 131 -14 14 -64 -11 -115 -59 -43 -41 -52 -42 -60 -8 -8 31 -92 206 -138
287 l-33 59 60 55 c84 76 202 166 295 224 44 27 82 49 85 49 5 0 151 -106 171
-125 7 -5 31 -26 55 -45 24 -19 92 -81 151 -139 l108 -105 39 22 c108 61 363
138 614 185 70 13 127 23 127 22 0 -2 -36 -38 -80 -80 -69 -68 -180 -209 -180
-230 0 -4 33 24 73 62 165 157 341 248 685 358 187 59 324 134 385 209 11 14
22 24 24 23 1 -2 -2 -21 -8 -43z m2810 -372 c20 -20 41 -46 46 -56 10 -17 15
-16 82 19 78 41 119 43 165 6 32 -26 32 -94 0 -138 -31 -44 -154 -124 -242
-159 l-73 -28 -44 49 c-63 73 -105 162 -107 229 -1 48 3 58 28 85 44 46 96 44
145 -7z m-1021 -338 c69 -98 125 -203 162 -304 17 -47 40 -95 51 -106 19 -20
20 -30 14 -101 -9 -94 1 -118 51 -139 19 -8 34 -17 34 -20 0 -3 -11 -19 -25
-36 -14 -16 -25 -38 -25 -49 0 -24 -8 -24 -32 -2 -27 25 -142 30 -191 9 l-38
-15 -26 62 c-45 105 -133 269 -180 336 l-46 63 31 67 c111 239 153 323 161
315 5 -5 31 -41 59 -80z m-4508 -59 c29 -66 62 -148 75 -181 l23 -62 -50 -83
c-55 -91 -121 -227 -157 -326 l-23 -63 -52 0 c-47 0 -95 -10 -184 -38 -32 -11
-34 -10 -48 23 -18 44 -18 42 12 49 17 5 31 20 44 49 24 51 25 100 4 180 -8
33 -11 63 -7 66 5 3 15 25 22 49 21 74 272 474 287 459 2 -1 26 -56 54 -122z
m5419 -185 c4 0 13 -11 19 -25 10 -21 8 -29 -13 -52 -23 -27 -25 -27 -52 -13
-37 21 -43 62 -11 84 13 9 29 14 36 11 8 -3 17 -5 21 -5z m-374 -269 c-11 -11
-33 10 -28 28 3 10 0 28 -6 38 -9 15 -10 13 -4 -12 6 -29 6 -29 -12 -12 -15
16 -16 22 -5 43 14 24 14 24 36 -28 12 -29 21 -55 19 -57z m-5650 -67 c-8 -97
-14 -109 -50 -100 -27 7 -28 8 -23 74 5 62 29 130 62 171 15 20 20 -39 11
-145z m-931 -278 c10 -56 13 -54 -94 -95 -90 -35 -216 -69 -286 -77 -56 -7
-55 -9 -69 61 l-6 30 118 30 c65 16 161 46 213 67 52 20 100 36 105 34 6 -1
14 -24 19 -50z m6330 9 c63 -6 111 -24 143 -55 30 -27 83 -162 104 -265 69
-329 64 -972 -8 -1265 -38 -155 -69 -208 -156 -274 -55 -41 -84 -45 -148 -17
-24 10 -52 21 -62 24 -16 6 -16 9 -4 34 132 260 184 1159 92 1593 -13 59 -50
177 -69 222 -7 15 -4 17 20 13 16 -2 56 -7 88 -10z m-5124 -48 c0 -1 -11 -47
-25 -102 -32 -127 -45 -275 -45 -540 0 -465 57 -911 141 -1111 19 -43 34 -83
34 -87 0 -4 -33 -19 -73 -33 -90 -30 -127 -23 -195 36 -70 62 -91 118 -121
320 -38 265 -49 489 -43 838 5 274 8 320 31 429 13 67 29 130 34 140 25 45 95
89 165 103 43 8 97 12 97 7z m5466 -39 c75 -36 148 -102 187 -169 74 -128 117
-338 117 -569 0 -178 -12 -301 -46 -467 -29 -142 -57 -228 -110 -338 -64 -132
-199 -251 -319 -281 -27 -7 -25 -2 34 64 35 40 84 86 109 102 25 16 56 46 70
66 59 87 118 325 93 373 -13 23 -67 29 -102 10 -18 -9 -19 -8 -12 18 4 15 8
195 7 398 0 408 -9 501 -72 723 -16 56 -28 102 -26 102 2 0 33 -14 70 -32z
m-5820 -65 c-18 -38 -46 -228 -56 -393 -7 -123 1 -508 14 -670 17 -207 17
-207 0 -177 -23 41 -58 51 -103 30 l-36 -18 3 -60 c2 -33 12 -88 22 -122 40
-129 88 -198 232 -324 43 -38 75 -69 71 -69 -15 0 -102 29 -125 41 -232 120
-385 573 -364 1074 16 392 133 641 331 706 11 4 21 7 23 8 1 1 -4 -11 -12 -26z
m391 -375 c-3 -8 -6 -5 -6 6 -1 11 2 17 5 13 3 -3 4 -12 1 -19z m50 -154 c-3
-3 -12 -4 -19 -1 -8 3 -5 6 6 6 11 1 17 -2 13 -5z m-1647 -106 c43 -46 -4
-117 -68 -103 -53 11 -65 86 -18 117 22 15 66 8 86 -14z m6580 -483 c0 -8 -2
-15 -4 -15 -2 0 -6 7 -10 15 -3 8 -1 15 4 15 6 0 10 -7 10 -15z m-30 -15 c0
-5 -5 -10 -11 -10 -5 0 -7 5 -4 10 3 6 8 10 11 10 2 0 4 -4 4 -10z m-15 -30
c4 -6 10 -8 14 -5 5 2 11 -9 15 -27 8 -39 -1 -50 -10 -14 -4 18 -11 25 -20 22
-8 -3 -14 -4 -14 -2 0 3 -3 11 -6 20 -7 17 11 22 21 6z m22 -602 c23 -12 57
-36 74 -54 26 -27 33 -43 37 -88 10 -120 -165 -528 -336 -786 -50 -74 -98
-144 -108 -155 -11 -12 -43 -50 -73 -85 -54 -65 -170 -180 -181 -180 -3 0 -34
39 -67 88 -69 97 -151 193 -132 152 6 -14 26 -50 45 -81 113 -189 258 -750
295 -1141 11 -125 5 -263 -11 -253 -5 3 -29 -25 -53 -62 -57 -89 -144 -183
-168 -183 -11 0 -41 11 -67 24 -64 31 -122 44 -217 47 -44 1 -83 4 -86 5 -3 2
2 34 12 71 24 90 24 171 0 199 -41 50 -211 124 -380 166 -65 16 -119 22 -221
22 -122 1 -140 -1 -182 -22 -87 -43 -136 -121 -175 -281 -19 -73 -25 -385 -10
-478 l9 -51 -69 -8 c-75 -8 -921 1 -930 10 -3 3 1 45 10 93 37 206 32 364 -19
523 -22 72 -34 93 -76 134 -27 27 -47 54 -45 60 10 25 105 143 184 229 138
149 192 240 228 382 26 102 24 195 -4 285 -33 106 -86 191 -210 338 -124 146
-201 202 -279 202 -77 0 -111 -30 -112 -100 0 -55 23 -96 94 -166 96 -96 182
-120 230 -63 14 17 26 35 26 40 0 38 89 -50 148 -147 67 -110 89 -262 57 -389
-34 -132 -92 -225 -239 -380 -31 -33 -84 -97 -117 -142 l-61 -83 -128 0 c-194
0 -377 -39 -520 -110 -89 -45 -105 -68 -105 -153 1 -140 72 -394 161 -569 13
-26 24 -50 24 -54 0 -10 -204 3 -270 16 -278 58 -392 158 -465 405 -23 76 -28
116 -32 257 -11 326 51 728 168 1086 105 323 134 575 84 712 -44 117 -46 129
-24 151 15 15 24 17 39 9 11 -6 81 -33 156 -61 365 -134 860 -216 1424 -235
194 -6 570 7 745 27 354 39 707 120 956 219 273 109 414 213 585 431 156 199
249 242 381 177z m-4746 -78 c61 -40 89 -73 169 -199 156 -247 248 -435 271
-551 17 -90 6 -242 -29 -380 -28 -109 -84 -265 -101 -283 -5 -4 -32 20 -62 55
-30 35 -57 65 -60 68 -16 14 -149 203 -183 260 -154 261 -296 677 -296 867 0
68 21 114 69 152 47 36 55 39 122 40 46 1 64 -4 100 -29z m6514 -1014 c43 -18
75 -69 75 -119 0 -28 -8 -46 -33 -73 -28 -31 -41 -37 -83 -41 -143 -12 -197
167 -69 232 38 19 66 19 110 1z m-7001 -233 c50 -36 59 -120 19 -166 -24 -27
-75 -47 -117 -47 -39 0 -88 35 -111 81 -20 38 -19 58 6 98 18 30 22 33 31 18
13 -24 26 -21 55 14 23 26 32 30 59 26 19 -3 45 -14 58 -24z m-824 -23 c16 0
50 -43 50 -62 0 -27 -45 -68 -73 -68 -30 0 -63 27 -72 58 -8 28 46 88 71 78 9
-3 20 -6 24 -6z m5900 -551 c613 -66 1128 -244 1450 -503 224 -180 373 -412
424 -659 20 -94 20 -254 2 -367 -55 -336 -300 -671 -650 -889 -323 -202 -725
-319 -1201 -351 -290 -20 -520 3 -827 80 -245 62 -727 208 -749 226 -8 8 -26
14 -40 14 -13 0 -31 5 -39 10 -10 6 6 8 50 4 529 -42 1103 -54 1400 -31 407
33 699 108 981 253 398 205 579 389 691 703 26 72 36 314 19 417 -67 381 -446
697 -1055 879 -115 34 -318 78 -481 105 -71 11 -145 23 -162 26 -23 3 -33 10
-33 23 0 10 -3 33 -6 51 l-7 32 69 -7 c38 -3 112 -11 164 -16z m-15 -153 c475
-81 792 -191 1060 -368 88 -58 211 -172 271 -249 162 -211 206 -515 110 -771
-33 -87 -107 -221 -153 -275 l-24 -28 19 40 c72 150 96 231 113 394 14 128 2
248 -36 369 -94 297 -398 542 -875 703 -160 55 -206 66 -444 109 -208 38 -226
44 -226 83 0 22 15 22 185 -7z m15 -103 c375 -66 731 -200 960 -361 84 -59
205 -181 253 -254 141 -215 166 -502 67 -768 -105 -283 -271 -438 -638 -596
-196 -84 -475 -150 -754 -179 -357 -36 -1160 -10 -1688 55 -150 18 -229 33
-640 120 -180 38 -448 89 -580 110 -401 63 -696 101 -980 125 -713 60 -979 85
-1087 104 -156 27 -291 65 -376 104 -85 39 -183 125 -214 188 -61 122 -41 306
46 433 71 102 235 245 345 300 53 26 169 60 187 54 6 -2 -18 -22 -53 -45 -70
-46 -173 -146 -214 -206 -14 -21 -40 -69 -57 -105 -28 -60 -32 -77 -32 -157 0
-78 4 -97 28 -147 85 -172 357 -299 832 -387 283 -52 563 -85 1075 -126 661
-53 939 -73 1760 -125 668 -43 1237 -50 1515 -20 394 43 717 141 923 282 68
46 189 165 232 228 93 138 120 217 127 381 5 112 3 135 -17 200 -41 135 -96
224 -210 338 -104 103 -211 175 -375 251 -109 51 -359 132 -510 165 -109 23
-105 22 -105 45 0 24 9 23 180 -7z m-20 -88 c410 -99 688 -247 862 -461 190
-234 207 -528 43 -774 -43 -65 -150 -180 -167 -180 -5 0 10 33 32 74 137 250
145 489 21 670 -137 198 -492 416 -843 518 -43 12 -80 28 -82 35 -3 7 -8 42
-12 78 -7 64 -6 65 17 65 13 0 71 -11 129 -25z m-4467 -112 c-3 -32 -6 -59 -7
-60 -1 -1 -47 -9 -101 -18 -176 -28 -316 -70 -530 -160 -77 -33 -334 -163
-416 -211 -150 -88 -294 -252 -341 -388 -56 -164 15 -351 176 -456 61 -40 241
-115 346 -144 140 -38 406 -75 775 -106 1270 -107 2070 -239 2815 -465 102
-30 201 -60 220 -65 19 -5 91 -25 159 -43 l125 -34 -60 -6 c-158 -17 -321 -18
-409 -4 -193 32 -661 126 -775 156 -256 68 -454 126 -530 157 -19 7 -69 23
-110 33 -41 11 -91 25 -110 31 -99 30 -375 83 -525 100 -198 24 -596 28 -835
9 -861 -66 -1298 26 -1478 314 -52 84 -69 130 -84 231 -25 176 26 339 159 505
73 91 152 161 273 239 205 134 540 275 835 352 17 4 66 18 110 30 86 24 253
58 297 59 26 1 27 1 21 -56z m3147 -49 c152 -26 303 -81 353 -127 37 -35 35
-77 -7 -208 -62 -190 -159 -380 -237 -463 -16 -17 -29 -34 -29 -37 0 -3 -26
-19 -57 -35 -47 -24 -74 -30 -141 -33 -99 -4 -154 13 -206 65 -74 74 -100 172
-100 374 0 115 5 163 22 233 57 228 140 276 402 231z m-1694 -23 c84 -38 123
-139 131 -341 9 -228 -40 -418 -128 -493 -49 -42 -97 -57 -185 -57 -88 0 -133
13 -186 53 -108 82 -218 329 -262 587 -19 113 -9 138 71 179 158 79 457 118
559 72z m-1456 -55 c0 -14 -3 -27 -7 -29 -5 -3 -50 -12 -101 -21 -52 -9 -133
-31 -180 -50 -48 -18 -136 -52 -196 -75 -60 -24 -150 -51 -200 -60 -50 -10
-100 -22 -111 -26 -43 -16 66 57 136 91 178 88 406 161 589 188 63 9 70 7 70
-18z m4 -88 c3 -13 6 -44 6 -70 0 -36 -4 -48 -15 -48 -9 0 -70 -18 -138 -41
-139 -46 -334 -140 -422 -204 -125 -90 -239 -231 -267 -330 -6 -22 -14 -71
-17 -110 l-6 -70 -35 69 c-29 58 -34 79 -34 135 1 150 91 297 258 420 135 100
335 194 523 245 115 32 139 32 147 4z m-879 -187 c-6 -5 -51 -43 -101 -84
-105 -87 -163 -151 -217 -239 -101 -168 -104 -363 -6 -498 27 -36 27 -40 8
-29 -43 22 -122 113 -147 168 -50 108 -25 261 62 379 81 109 181 192 331 273
71 39 86 46 70 30z m584 -84 c-17 -13 -15 -82 3 -71 15 10 38 -17 38 -45 0
-60 -54 -108 -55 -49 -1 15 -9 36 -20 47 -10 12 -14 21 -9 21 5 0 10 14 11 31
2 26 0 29 -12 19 -8 -7 -22 -10 -30 -6 -8 3 -15 1 -15 -4 0 -6 -9 -19 -20 -30
-19 -19 -23 -19 -41 -6 l-21 14 20 11 c30 16 40 13 18 -4 -11 -8 -15 -15 -9
-15 14 0 34 25 26 33 -3 4 23 20 58 37 69 32 84 37 58 17z m3868 -2 c0 -8 -4
-15 -9 -15 -10 0 -11 14 -1 23 9 10 10 9 10 -8z m503 -118 c0 -2 -10 -12 -22
-23 l-23 -19 19 23 c18 21 26 27 26 19z m-3950 -61 c0 -12 -5 -7 -19 24 -11
24 -11 24 3 6 9 -11 16 -24 16 -30z m-768 -39 c-25 -27 -43 -117 -22 -117 16
0 81 30 102 47 14 13 20 12 47 -1 16 -9 35 -16 41 -16 13 0 50 -37 50 -50 0
-10 41 -30 61 -30 5 0 9 7 9 15 0 9 7 18 15 21 8 4 13 10 10 14 -9 15 26 42
39 31 8 -7 46 -7 111 0 55 6 107 8 117 6 10 -3 16 -1 12 4 -3 5 5 8 18 7 13 0
55 2 93 5 l70 7 -81 -19 c-45 -11 -101 -29 -125 -41 l-43 -22 23 -19 c13 -10
40 -23 62 -29 21 -6 41 -15 44 -20 4 -6 10 -8 15 -5 4 3 6 -3 3 -13 -2 -10 6
-30 17 -45 19 -24 29 -28 74 -28 28 0 77 -2 109 -5 47 -5 62 -2 78 12 15 14
17 20 7 27 -8 5 12 6 51 3 35 -3 84 -6 108 -6 27 0 42 -4 38 -10 -3 -5 -15
-10 -26 -10 -27 0 -25 -36 4 -44 42 -11 117 -7 114 7 -1 6 4 12 11 11 6 -1 26
-2 42 -2 24 -2 30 -6 30 -25 0 -13 -5 -28 -12 -35 -8 -8 -8 -15 1 -26 7 -8 10
-33 8 -57 -3 -32 -12 -51 -37 -76 -38 -37 -56 -41 -63 -15 -4 13 -5 12 -6 -5
0 -12 -10 -24 -21 -28 -11 -3 -20 -11 -20 -17 0 -6 -9 -8 -20 -5 -19 5 -62
-33 -72 -65 -7 -20 -100 -17 -115 3 -10 13 -27 16 -79 13 -80 -4 -99 5 -119
51 -19 47 -51 48 -60 3 -4 -18 -12 -39 -18 -46 -6 -8 -6 -16 -1 -21 8 -8 136
-27 357 -52 84 -10 154 -27 115 -28 -33 -2 -298 30 -451 54 -163 25 -466 89
-496 105 -9 4 -50 18 -91 30 -88 27 -152 57 -222 107 -54 39 -78 81 -78 136 0
84 67 223 144 297 44 43 63 55 28 17z m5147 -78 c113 -20 174 -45 179 -71 4
-20 -18 -30 -105 -53 -52 -14 -98 -10 -87 6 3 5 0 9 -5 9 -6 0 -11 7 -11 16 0
10 -5 14 -16 10 -8 -3 -12 -2 -9 3 9 15 -35 40 -110 62 -102 30 -105 32 -55
39 53 7 81 4 219 -21z m-4286 -166 c-7 -2 -19 -2 -25 0 -7 3 -2 5 12 5 14 0
19 -2 13 -5z m74 -9 c-3 -3 -12 -4 -19 -1 -8 3 -5 6 6 6 11 1 17 -2 13 -5z
m291 -31 c-10 -2 -28 -2 -40 0 -13 2 -5 4 17 4 22 1 32 -1 23 -4z m87 -13 c17
-7 15 -9 -12 -9 -18 -1 -33 4 -33 9 0 12 17 12 45 0z m-85 -20 c0 -5 -4 -10
-10 -10 -5 0 -10 5 -10 10 0 6 5 10 10 10 6 0 10 -4 10 -10z m48 -437 c-10 -2
-26 -2 -35 0 -10 3 -2 5 17 5 19 0 27 -2 18 -5z m59 -9 c-3 -3 -12 -4 -19 -1
-8 3 -5 6 6 6 11 1 17 -2 13 -5z m676 -401 c-7 -2 -19 -2 -25 0 -7 3 -2 5 12
5 14 0 19 -2 13 -5z m209 -71 c15 -15 -2 -16 -49 -3 -26 7 -31 7 -26 -5 3 -10
-2 -14 -19 -14 -98 0 -304 -25 -401 -49 -189 -47 -297 -111 -355 -209 -23 -40
-27 -58 -27 -122 0 -83 15 -122 69 -178 45 -48 96 -71 186 -84 142 -21 323 13
665 125 407 133 817 211 1328 252 281 22 396 20 565 -12 78 -15 142 -30 142
-35 0 -4 -84 -8 -187 -8 -674 -1 -1432 -113 -1936 -286 -40 -14 -126 -38 -192
-55 -368 -91 -577 -43 -676 154 -25 48 -30 71 -30 129 -1 133 79 243 226 313
84 40 184 71 291 90 100 17 407 16 426 -3z m-722 -577 c17 -9 30 -18 30 -21 0
-13 -85 43 -98 66 -15 24 -14 24 12 -2 14 -15 40 -35 56 -43z"/>
<path d="M4039 6775 c-131 -25 -239 -77 -239 -115 0 -29 27 -31 90 -6 90 37
164 50 280 49 126 0 214 -20 316 -69 61 -30 77 -34 89 -24 8 7 15 18 15 24 0
36 -111 99 -235 132 -78 22 -229 26 -316 9z"/>
<path d="M6397 6775 c-137 -26 -287 -100 -287 -141 0 -27 31 -27 95 1 196 83
420 88 594 13 39 -16 46 -17 59 -5 76 77 -253 171 -461 132z"/>
<path d="M5275 6560 c-3 -5 11 -28 32 -50 l37 -42 -17 -31 c-42 -78 -159 -109
-226 -59 -40 29 -51 28 -51 -8 0 -36 40 -65 102 -75 71 -12 133 10 223 79 7 5
29 -4 61 -27 57 -41 128 -62 179 -53 46 9 95 51 95 82 0 30 0 30 -60 -1 -59
-30 -81 -31 -136 -6 -39 18 -94 75 -94 99 0 6 14 19 30 29 33 19 48 49 32 65
-8 8 -25 7 -57 -2 -35 -10 -52 -10 -71 -1 -30 14 -71 14 -79 1z"/>
<path d="M1450 7730 c10 -6 11 -10 3 -10 -7 0 -13 -4 -13 -9 0 -5 15 -4 35 2
41 12 41 12 -5 21 -25 4 -31 3 -20 -4z"/>
<path d="M6445 3440 c3 -5 11 -10 16 -10 6 0 7 5 4 10 -3 6 -11 10 -16 10 -6
0 -7 -4 -4 -10z"/>
<path d="M6232 3395 c-2 -23 1 -25 30 -20 20 4 34 1 39 -7 6 -8 9 -1 9 20 0
30 -2 32 -38 32 -33 0 -38 -3 -40 -25z"/>
<path d="M6510 3351 c0 -6 5 -13 10 -16 6 -3 10 1 10 9 0 9 -4 16 -10 16 -5 0
-10 -4 -10 -9z"/>
<path d="M6022 3325 c-12 -9 -22 -22 -22 -28 0 -7 -7 -25 -15 -40 -15 -30 -29
-88 -47 -205 -9 -61 -9 -75 2 -82 22 -14 133 -4 169 14 35 18 35 22 0 40 -12
6 -30 26 -40 45 -10 19 -23 39 -29 45 -13 13 -13 53 0 61 6 4 10 24 8 46 -1
21 3 44 10 51 15 15 15 30 -1 51 -11 16 -14 16 -35 2z"/>
<path d="M6479 3245 c3 -34 5 -37 12 -17 5 12 14 22 20 22 7 0 9 -9 5 -22 -3
-13 -6 -26 -6 -30 0 -5 -5 -8 -11 -8 -13 0 -49 -38 -49 -52 0 -4 8 -8 17 -8
21 0 113 61 113 74 0 27 -46 75 -75 78 -30 3 -30 3 -26 -37z"/>
<path d="M2380 2551 c0 -17 5 -31 10 -31 6 0 10 -11 10 -25 0 -13 10 -33 22
-45 12 -11 17 -20 10 -20 -23 0 0 -26 47 -53 52 -29 66 -33 56 -17 -3 6 -1 10
4 10 6 0 11 8 10 18 0 10 -3 12 -6 5 -2 -7 -17 -13 -31 -12 -27 0 -27 0 -4 10
32 12 27 55 -5 51 -26 -4 -32 5 -42 60 -7 43 -11 45 -43 33 -14 -5 -18 -2 -18
13 0 12 -4 24 -10 27 -6 4 -10 -7 -10 -24z"/>
<path d="M2718 2498 c-7 -19 3 -58 13 -52 12 7 12 51 0 58 -5 4 -11 1 -13 -6z"/>
<path d="M3750 2460 c0 -5 5 -10 10 -10 6 0 10 5 10 10 0 6 -4 10 -10 10 -5 0
-10 -4 -10 -10z"/>
<path d="M2746 2394 c-3 -8 -10 -12 -16 -9 -5 3 -10 -1 -10 -10 0 -14 2 -14
25 1 14 9 22 20 19 25 -7 13 -11 11 -18 -7z"/>
<path d="M2790 2370 c-8 -5 -11 -12 -7 -16 4 -4 13 -2 19 4 15 15 7 24 -12 12z"/>
<path d="M2634 2358 c-4 -6 -2 -14 4 -16 16 -5 15 -21 0 -18 -7 1 -23 7 -35
14 -25 14 -33 15 -33 4 0 -10 51 -34 130 -60 100 -34 116 -28 77 28 l-17 24
-21 -23 c-12 -12 -28 -20 -36 -17 -8 3 -19 6 -24 6 -5 0 -4 11 1 26 6 14 8 30
4 35 -8 13 -41 11 -50 -3z"/>
<path d="M3244 2337 c-8 -21 1 -47 16 -47 19 0 23 31 7 48 -15 14 -17 14 -23
-1z"/>
<path d="M3057 2234 c-9 -10 2 -24 18 -24 9 0 12 6 9 15 -6 16 -17 19 -27 9z"/>
</g>
</svg>
